<svg width="53" height="53" viewBox="0 0 53 53" fill="none" xmlns="http://www.w3.org/2000/svg">
<path d="M48.8594 13.25H35.5629C35.357 11.429 34.4884 9.74738 33.1225 8.52561C31.7565 7.30384 29.9889 6.62733 28.1563 6.625H24.8438C23.0112 6.62733 21.2435 7.30384 19.8775 8.52561C18.5116 9.74738 17.643 11.429 17.4371 13.25H4.14063C3.48195 13.2507 2.85046 13.5127 2.3847 13.9785C1.91895 14.4442 1.65697 15.0757 1.65625 15.7344V24.3108C1.65542 24.8246 1.8144 25.3258 2.11115 25.7452C2.40791 26.1646 2.82775 26.4813 3.3125 26.6514V44.7188C3.31322 45.3774 3.5752 46.0089 4.04095 46.4747C4.50671 46.9404 5.1382 47.2024 5.79688 47.2031H47.2031C47.8618 47.2024 48.4933 46.9404 48.9591 46.4747C49.4248 46.0089 49.6868 45.3774 49.6875 44.7188V26.6514C50.1723 26.4813 50.5922 26.1646 50.8889 25.7453C51.1857 25.3259 51.3447 24.8246 51.3438 24.3108V15.7344C51.343 15.0757 51.0811 14.4442 50.6153 13.9785C50.1495 13.5127 49.5181 13.2507 48.8594 13.25ZM24.8438 8.28125H28.1563C29.5498 8.28297 30.8962 8.78586 31.9496 9.6981C33.003 10.6103 33.6932 11.871 33.8941 13.25H32.2136C32.0215 12.3154 31.513 11.4757 30.7739 10.8723C30.0349 10.2689 29.1104 9.93875 28.1563 9.9375H24.8438C23.8896 9.93875 22.9651 10.2689 22.2261 10.8723C21.487 11.4757 20.9785 12.3154 20.7864 13.25H19.1059C19.3068 11.871 19.997 10.6103 21.0504 9.6981C22.1038 8.78586 23.4502 8.28297 24.8438 8.28125ZM30.4841 13.25H22.5159C22.6854 12.7674 23.0002 12.349 23.417 12.0525C23.8338 11.7559 24.3322 11.5957 24.8438 11.5938H28.1563C28.6678 11.5957 29.1662 11.7559 29.583 12.0525C29.9998 12.349 30.3146 12.7674 30.4841 13.25ZM47.2031 45.5469H5.79688C5.57733 45.5466 5.36686 45.4592 5.21162 45.304C5.05638 45.1488 4.96904 44.9383 4.96875 44.7188V26.9727L22.3594 29.945V31.4688C22.3594 32.5669 22.7956 33.6201 23.5721 34.3966C24.3487 35.1731 25.4018 35.6094 26.5 35.6094C27.5982 35.6094 28.6514 35.1731 29.4279 34.3966C30.2044 33.6201 30.6406 32.5669 30.6406 31.4688V29.945L48.0313 26.9726V44.7188C48.031 44.9383 47.9437 45.1488 47.7885 45.3041C47.6332 45.4593 47.4227 45.5467 47.2031 45.5469ZM24.0156 31.4688V27.3281C24.0158 27.1086 24.1032 26.8981 24.2584 26.7428C24.4137 26.5875 24.6242 26.5002 24.8438 26.5H28.1563C28.3758 26.5002 28.5863 26.5875 28.7416 26.7428C28.8968 26.8981 28.9842 27.1086 28.9844 27.3281V31.4688C28.9844 32.1276 28.7226 32.7596 28.2567 33.2255C27.7908 33.6914 27.1589 33.9531 26.5 33.9531C25.8411 33.9531 25.2092 33.6914 24.7433 33.2255C24.2774 32.7596 24.0156 32.1276 24.0156 31.4688ZM49.6875 24.1523C49.715 24.3714 49.6596 24.5929 49.5321 24.7732C49.4046 24.9536 49.2143 25.0797 48.9985 25.1268L30.6406 28.2645V27.3281C30.6399 26.6694 30.3779 26.038 29.9122 25.5722C29.4464 25.1064 28.8149 24.8445 28.1563 24.8438H24.8438C24.1851 24.8445 23.5536 25.1064 23.0878 25.5722C22.6221 26.038 22.3601 26.6694 22.3594 27.3281V28.2645L4.00112 25.1268C3.78543 25.0796 3.5952 24.9534 3.46778 24.7731C3.34036 24.5928 3.28498 24.3713 3.3125 24.1523V15.7344C3.31279 15.5148 3.40013 15.3044 3.55537 15.1491C3.71061 14.9939 3.92108 14.9065 4.14063 14.9062H48.8594C49.0789 14.9065 49.2895 14.9938 49.4447 15.149C49.6 15.3043 49.6873 15.5148 49.6875 15.7344V24.1523ZM26.5 31.4688C26.2543 31.4688 26.0142 31.3959 25.8099 31.2594C25.6056 31.1229 25.4464 30.9289 25.3524 30.7019C25.2584 30.4749 25.2338 30.2252 25.2817 29.9842C25.3296 29.7433 25.4479 29.5219 25.6216 29.3482C25.7954 29.1745 26.0167 29.0562 26.2577 29.0082C26.4986 28.9603 26.7484 28.9849 26.9754 29.0789C27.2023 29.173 27.3964 29.3322 27.5328 29.5364C27.6693 29.7407 27.7422 29.9809 27.7422 30.2266C27.7422 30.556 27.6113 30.872 27.3784 31.1049C27.1454 31.3379 26.8295 31.4688 26.5 31.4688ZM45.5469 37.2656C45.5469 37.3744 45.5255 37.4821 45.4839 37.5826C45.4423 37.6831 45.3813 37.7744 45.3044 37.8513C45.2275 37.9282 45.1362 37.9892 45.0357 38.0308C44.9352 38.0724 44.8275 38.0938 44.7188 38.0938H33.125C32.9054 38.0938 32.6947 38.0065 32.5394 37.8512C32.3841 37.6959 32.2969 37.4853 32.2969 37.2656C32.2969 37.046 32.3841 36.8354 32.5394 36.6801C32.6947 36.5247 32.9054 36.4375 33.125 36.4375H44.7188C44.8275 36.4375 44.9352 36.4589 45.0357 36.5005C45.1362 36.5421 45.2275 36.6031 45.3044 36.68C45.3813 36.7569 45.4423 36.8482 45.4839 36.9487C45.5255 37.0492 45.5469 37.1569 45.5469 37.2656ZM45.5469 33.9531C45.5469 34.0619 45.5255 34.1696 45.4839 34.2701C45.4423 34.3706 45.3813 34.4619 45.3044 34.5388C45.2275 34.6157 45.1362 34.6767 45.0357 34.7183C44.9352 34.7599 44.8275 34.7813 44.7188 34.7812H33.125C32.9054 34.7812 32.6947 34.694 32.5394 34.5387C32.3841 34.3834 32.2969 34.1728 32.2969 33.9531C32.2969 33.7335 32.3841 33.5229 32.5394 33.3676C32.6947 33.2122 32.9054 33.125 33.125 33.125H44.7188C44.8275 33.125 44.9352 33.1464 45.0357 33.188C45.1362 33.2296 45.2275 33.2906 45.3044 33.3675C45.3813 33.4444 45.4423 33.5357 45.4839 33.6362C45.5255 33.7367 45.5469 33.8444 45.5469 33.9531ZM45.5469 40.5781C45.5469 40.6869 45.5255 40.7946 45.4839 40.8951C45.4423 40.9956 45.3813 41.0869 45.3044 41.1638C45.2275 41.2407 45.1362 41.3017 45.0357 41.3433C44.9352 41.3849 44.8275 41.4063 44.7188 41.4062H33.125C32.9054 41.4062 32.6947 41.319 32.5394 41.1637C32.3841 41.0084 32.2969 40.7978 32.2969 40.5781C32.2969 40.3585 32.3841 40.1479 32.5394 39.9925C32.6947 39.8372 32.9054 39.75 33.125 39.75H44.7188C44.8275 39.75 44.9352 39.7714 45.0357 39.813C45.1362 39.8546 45.2275 39.9156 45.3044 39.9925C45.3813 40.0694 45.4423 40.1607 45.4839 40.2612C45.5255 40.3617 45.5469 40.4694 45.5469 40.5781ZM25.6719 42.2344H24.0156V36.4375C24.0156 35.9982 23.8411 35.577 23.5305 35.2664C23.2199 34.9557 22.7986 34.7812 22.3594 34.7812H21.5313C21.092 34.7812 20.6707 34.9557 20.3601 35.2664C20.0495 35.577 19.875 35.9982 19.875 36.4375V42.2344H19.0469V32.2969C19.0469 31.8576 18.8724 31.4363 18.5618 31.1257C18.2512 30.8151 17.8299 30.6406 17.3906 30.6406H16.5625C16.1232 30.6406 15.702 30.8151 15.3914 31.1257C15.0808 31.4363 14.9063 31.8576 14.9063 32.2969V42.2344H14.0781V34.7812C14.0781 34.342 13.9036 33.9207 13.593 33.6101C13.2824 33.2995 12.8611 33.125 12.4219 33.125H11.5938C11.1545 33.125 10.7332 33.2995 10.4226 33.6101C10.112 33.9207 9.9375 34.342 9.9375 34.7812V42.2344H9.10938C8.88981 42.2342 8.6793 42.1468 8.52405 41.9916C8.36879 41.8363 8.28147 41.6258 8.28125 41.4062V28.9844C8.28125 28.7647 8.194 28.5541 8.0387 28.3988C7.8834 28.2435 7.67276 28.1562 7.45313 28.1562C7.2335 28.1562 7.02286 28.2435 6.86756 28.3988C6.71225 28.5541 6.625 28.7647 6.625 28.9844V41.4062C6.62572 42.0649 6.8877 42.6964 7.35345 43.1622C7.81921 43.6279 8.4507 43.8899 9.10938 43.8906H25.6719C25.8915 43.8906 26.1021 43.8034 26.2575 43.6481C26.4128 43.4928 26.5 43.2821 26.5 43.0625C26.5 42.8429 26.4128 42.6322 26.2575 42.4769C26.1021 42.3216 25.8915 42.2344 25.6719 42.2344ZM11.5938 42.2344L11.5929 34.7812H12.4219V42.2344H11.5938ZM16.5625 42.2344L16.5617 32.2969H17.3906V42.2344H16.5625ZM21.5313 42.2344L21.5304 36.4375H22.3594V42.2344H21.5313Z" fill="url(#paint0_linear_3845_23918)"/>
<defs>
<linearGradient id="paint0_linear_3845_23918" x1="26.5" y1="6.625" x2="26.5" y2="47.2031" gradientUnits="userSpaceOnUse">
<stop stop-color="#009DFF"/>
<stop offset="1" stop-color="#AE00FF"/>
</linearGradient>
</defs>
</svg>
