<svg width="52" height="53" viewBox="0 0 52 53" fill="none" xmlns="http://www.w3.org/2000/svg">
<path d="M26 42.749C24.6697 42.749 22.9515 42.0123 22.1542 41.488C21.1878 40.8531 16.3388 37.2066 12.3045 33.8288C11.6328 33.2655 10.634 32.2211 9.66768 31.2115C8.95051 30.464 8.30051 29.7771 7.96468 29.4933C7.50751 29.1076 7.45118 28.423 7.83684 27.9658C8.22034 27.5065 8.90284 27.448 9.36434 27.838C9.73268 28.15 10.4498 28.8931 11.2342 29.7121C12.1182 30.6351 13.1192 31.6795 13.6977 32.167C17.8165 35.6163 22.5853 39.174 23.3458 39.6745C23.9807 40.0948 25.2785 40.5823 26 40.5823C27.014 40.5823 27.1072 40.3223 27.1483 40.214C27.2718 39.8738 27.5557 39.6181 27.9088 39.5315C28.2577 39.447 28.6303 39.5401 28.899 39.7828C29.3302 40.1771 29.8112 40.1013 30.1427 39.9756C30.8295 39.7091 31.356 39.0266 31.421 38.316C31.46 37.9043 31.7287 37.549 32.1143 37.4038C32.5 37.2608 32.9355 37.3431 33.2388 37.6248C33.5097 37.8761 34.2333 37.9368 34.9267 37.5858C35.1997 37.4493 35.8302 37.055 35.7565 36.366C35.711 35.9456 35.9147 35.5361 36.2787 35.3195C36.6405 35.1028 37.0977 35.118 37.4487 35.3585C37.7672 35.5816 38.3543 35.4646 38.7833 35.0963C39.0758 34.8471 39.507 34.3033 39.1062 33.4691C38.2937 31.7791 34.6818 28.8585 31.4968 26.2823C29.7353 24.8588 28.0627 23.5046 26.8233 22.3411C26.507 22.469 26.2687 22.5751 26.065 22.6661C25.5017 22.9196 25.1268 23.0756 24.4378 23.1818C22.7695 25.3961 20.5292 26.1718 18.0743 25.3615C17.095 25.0386 16.4363 24.3453 16.2132 23.4093C15.6932 21.2102 17.706 18.2116 19.188 16.7296C23.0815 12.8339 25.8072 11.3714 30.7753 13.5922C35.0393 15.5011 39.312 16.9939 39.3553 17.0091C39.9208 17.2062 40.2177 17.8237 40.0227 18.3892C39.8255 18.9547 39.2123 19.2537 38.6425 19.0566C38.5992 19.0414 34.2398 17.5182 29.8892 15.5726C26.0542 13.8587 24.2385 14.7406 20.7177 18.2636C19.2378 19.7434 18.096 21.9577 18.3235 22.9088C18.356 23.0475 18.4167 23.1926 18.7547 23.3053C19.8142 23.6606 21.4002 23.8556 22.932 21.5656C23.1118 21.2969 23.4022 21.1236 23.725 21.0911C24.4552 21.0174 24.6372 20.9351 25.1788 20.6924C25.5342 20.5342 25.9848 20.3306 26.715 20.0662C27.1072 19.9254 27.5513 20.0207 27.8482 20.3197C29.0333 21.5049 30.8923 23.0085 32.8597 24.5988C36.387 27.4523 40.0378 30.4055 41.0583 32.5331C41.7777 34.026 41.4353 35.6813 40.1917 36.7451C39.4572 37.3756 38.5688 37.6811 37.7065 37.6356C37.3945 38.4178 36.7662 39.0873 35.8973 39.525C35.009 39.9713 34.0318 40.0991 33.1782 39.9171C32.7188 40.8488 31.9085 41.618 30.9227 41.9993C30.0885 42.3243 29.2218 42.3221 28.4592 42.0253C27.8893 42.5041 27.0682 42.749 26 42.749Z" fill="url(#paint0_linear_3845_23907)"/>
<path d="M21.6667 16.7487H11.9167C11.3187 16.7487 10.8334 16.2634 10.8334 15.6654C10.8334 15.0674 11.3187 14.582 11.9167 14.582H21.6667C22.2647 14.582 22.75 15.0674 22.75 15.6654C22.75 16.2634 22.2647 16.7487 21.6667 16.7487Z" fill="url(#paint1_linear_3845_23907)"/>
<path d="M40.1678 34.0443C39.819 34.0443 39.4767 33.8753 39.2665 33.5655C38.9328 33.0693 39.065 32.3955 39.5612 32.0618L42.7288 29.9342C43.225 29.5962 43.8967 29.7327 44.2325 30.2288C44.5662 30.725 44.434 31.3988 43.9378 31.7325L40.7702 33.8602C40.5838 33.9858 40.3737 34.0443 40.1678 34.0443Z" fill="url(#paint2_linear_3845_23907)"/>
<path d="M36.8334 37.3321C36.5994 37.3321 36.361 37.2562 36.1639 37.1002C35.022 36.1989 30.1102 31.0791 29.5534 30.4984C29.1395 30.0672 29.1525 29.3804 29.5859 28.9666C30.017 28.5506 30.7039 28.5657 31.1177 28.9991C33.2627 31.2351 36.7315 34.7862 37.5072 35.3972C37.9774 35.7677 38.0575 36.4502 37.687 36.9182C37.4704 37.1891 37.1519 37.3321 36.8334 37.3321Z" fill="url(#paint3_linear_3845_23907)"/>
<path d="M32.5 39.4986C32.2638 39.4986 32.0233 39.4206 31.824 39.2625C30.2163 37.9755 26.325 33.7743 26.286 33.7331C25.8808 33.2933 25.9112 32.6065 26.351 32.2013C26.793 31.7983 27.4755 31.8243 27.8828 32.2663C28.6195 33.068 31.8803 36.5325 33.1782 37.5703C33.644 37.943 33.7198 38.6255 33.3472 39.0935C33.1327 39.3578 32.8163 39.4986 32.5 39.4986Z" fill="url(#paint4_linear_3845_23907)"/>
<path d="M28.1667 41.6654C27.9197 41.6654 27.6727 41.5809 27.469 41.4097C25.8722 40.0621 22.8475 36.8554 21.9592 35.9042C21.5519 35.4666 21.5735 34.7819 22.0112 34.3724C22.4467 33.9629 23.1335 33.9867 23.543 34.4244C24.1605 35.0852 27.3217 38.4501 28.8665 39.7522C29.3237 40.1379 29.3822 40.8204 28.9965 41.2797C28.782 41.5332 28.4744 41.6654 28.1667 41.6654Z" fill="url(#paint5_linear_3845_23907)"/>
<path d="M7.58333 31.9159H1.08333C0.485333 31.9159 0 31.4305 0 30.8325V11.3326C0 11.0336 0.1235 10.7476 0.340167 10.544C0.556833 10.3381 0.840667 10.2363 1.14833 10.2515C3.38 10.3836 10.8052 10.9535 12.662 12.7128C12.9025 12.9381 13.0238 13.2631 12.9957 13.5925C12.5038 19.2258 8.77067 30.683 8.6125 31.1684C8.46733 31.6147 8.05133 31.9159 7.58333 31.9159ZM2.16667 29.7492H6.7925C7.5985 27.2055 10.1963 18.7751 10.7705 14.0301C9.4055 13.3671 5.6485 12.7691 2.16667 12.494V29.7492Z" fill="url(#paint6_linear_3845_23907)"/>
<path d="M50.9167 34.0826H44.4167C43.9292 34.0826 43.5024 33.7576 43.3724 33.2874C42.5664 30.3667 38.3739 18.3938 37.0349 16.238C36.8724 15.9737 36.829 15.6552 36.9157 15.3583C37.0024 15.0615 37.2125 14.8167 37.4942 14.6845C37.6914 14.5935 42.4104 12.416 50.9167 12.416C51.5147 12.416 52 12.8992 52 13.4993V32.9992C52 33.5972 51.5147 34.0826 50.9167 34.0826ZM45.227 31.9159H49.8334V14.5957C44.6789 14.717 41.1277 15.6812 39.4745 16.2423C41.1667 19.8477 44.2 28.5706 45.227 31.9159Z" fill="url(#paint7_linear_3845_23907)"/>
<defs>
<linearGradient id="paint0_linear_3845_23907" x1="24.5057" y1="12.5508" x2="24.5057" y2="42.749" gradientUnits="userSpaceOnUse">
<stop stop-color="#009DFF"/>
<stop offset="1" stop-color="#AE00FF"/>
</linearGradient>
<linearGradient id="paint1_linear_3845_23907" x1="16.7917" y1="14.582" x2="16.7917" y2="16.7487" gradientUnits="userSpaceOnUse">
<stop stop-color="#009DFF"/>
<stop offset="1" stop-color="#AE00FF"/>
</linearGradient>
<linearGradient id="paint2_linear_3845_23907" x1="41.7495" y1="29.748" x2="41.7495" y2="34.0443" gradientUnits="userSpaceOnUse">
<stop stop-color="#009DFF"/>
<stop offset="1" stop-color="#AE00FF"/>
</linearGradient>
<linearGradient id="paint3_linear_3845_23907" x1="33.5858" y1="28.6641" x2="33.5858" y2="37.3321" gradientUnits="userSpaceOnUse">
<stop stop-color="#009DFF"/>
<stop offset="1" stop-color="#AE00FF"/>
</linearGradient>
<linearGradient id="paint4_linear_3845_23907" x1="29.7922" y1="31.916" x2="29.7922" y2="39.4986" gradientUnits="userSpaceOnUse">
<stop stop-color="#009DFF"/>
<stop offset="1" stop-color="#AE00FF"/>
</linearGradient>
<linearGradient id="paint5_linear_3845_23907" x1="25.4596" y1="34.0801" x2="25.4596" y2="41.6654" gradientUnits="userSpaceOnUse">
<stop stop-color="#009DFF"/>
<stop offset="1" stop-color="#AE00FF"/>
</linearGradient>
<linearGradient id="paint6_linear_3845_23907" x1="6.49984" y1="10.25" x2="6.49984" y2="31.9159" gradientUnits="userSpaceOnUse">
<stop stop-color="#009DFF"/>
<stop offset="1" stop-color="#AE00FF"/>
</linearGradient>
<linearGradient id="paint7_linear_3845_23907" x1="44.436" y1="12.416" x2="44.436" y2="34.0826" gradientUnits="userSpaceOnUse">
<stop stop-color="#009DFF"/>
<stop offset="1" stop-color="#AE00FF"/>
</linearGradient>
</defs>
</svg>
