<svg width="48" height="48" viewBox="0 0 48 48" fill="none" xmlns="http://www.w3.org/2000/svg">
<path d="M44.0308 34.4876C45.2274 34.4876 46.1975 33.5176 46.1975 32.321C46.1975 31.1243 45.2274 30.1543 44.0308 30.1543C42.8342 30.1543 41.8641 31.1243 41.8641 32.321C41.8641 33.5176 42.8342 34.4876 44.0308 34.4876Z" fill="url(#paint0_linear_3845_23802)"/>
<path d="M39.3053 41.4661C40.502 41.4661 41.472 40.4961 41.472 39.2995C41.472 38.1029 40.502 37.1328 39.3053 37.1328C38.1087 37.1328 37.1387 38.1029 37.1387 39.2995C37.1387 40.4961 38.1087 41.4661 39.3053 41.4661Z" fill="url(#paint1_linear_3845_23802)"/>
<path d="M45.6602 26.1751C46.8568 26.1751 47.8269 25.2051 47.8269 24.0085C47.8269 22.8118 46.8568 21.8418 45.6602 21.8418C44.4636 21.8418 43.4935 22.8118 43.4935 24.0085C43.4935 25.2051 44.4636 26.1751 45.6602 26.1751Z" fill="url(#paint2_linear_3845_23802)"/>
<path d="M32.2875 46.2005C33.4841 46.2005 34.4542 45.2305 34.4542 44.0339C34.4542 42.8372 33.4841 41.8672 32.2875 41.8672C31.0909 41.8672 30.1208 42.8372 30.1208 44.0339C30.1208 45.2305 31.0909 46.2005 32.2875 46.2005Z" fill="url(#paint3_linear_3845_23802)"/>
<path d="M24 43.4993C20.8794 43.5031 17.8035 42.7579 15.0306 41.3262C12.2578 39.8946 9.86899 37.8184 8.065 35.2721C6.26101 32.7257 5.09449 29.7836 4.66343 26.6929C4.23238 23.6022 4.54938 20.4532 5.58781 17.5105C6.62624 14.5677 8.35576 11.9171 10.6311 9.78142C12.9064 7.64574 15.6611 6.08731 18.6636 5.23708C21.6662 4.38685 24.8289 4.26965 27.8862 4.89532C30.9434 5.52099 33.8059 6.87126 36.233 8.83268H32.6667C32.092 8.83268 31.5409 9.06096 31.1346 9.46728C30.7283 9.87361 30.5 10.4247 30.5 10.9993C30.5 11.574 30.7283 12.1251 31.1346 12.5314C31.5409 12.9377 32.092 13.166 32.6667 13.166H41.3333C41.908 13.166 42.4591 12.9377 42.8654 12.5314C43.2717 12.1251 43.5 11.574 43.5 10.9993V2.33268C43.5 1.75805 43.2717 1.20695 42.8654 0.800617C42.4591 0.394289 41.908 0.166016 41.3333 0.166016C40.7587 0.166016 40.2076 0.394289 39.8013 0.800617C39.3949 1.20695 39.1667 1.75805 39.1667 2.33268V5.64985C36.2203 3.21396 32.731 1.52294 28.9934 0.719599C25.2559 -0.0837379 21.3799 0.0242132 17.6928 1.03433C14.0058 2.04445 10.616 3.92707 7.80978 6.52318C5.00356 9.11928 2.86334 12.3526 1.56989 15.9501C0.276442 19.5475 -0.132237 23.4034 0.378372 27.1921C0.888981 30.9807 2.30388 34.5908 4.50356 37.7175C6.70323 40.8442 9.62308 43.3955 13.0165 45.1561C16.4098 46.9167 20.1771 47.8347 24 47.8327C24.5746 47.8327 25.1257 47.6044 25.5321 47.1981C25.9384 46.7917 26.1667 46.2406 26.1667 45.666C26.1667 45.0914 25.9384 44.5403 25.5321 44.1339C25.1257 43.7276 24.5746 43.4993 24 43.4993Z" fill="url(#paint4_linear_3845_23802)"/>
<path d="M32.0319 32.0305C32.4381 31.6242 32.6662 31.0732 32.6662 30.4987C32.6662 29.9242 32.4381 29.3732 32.0319 28.9669L26.1667 23.1017V10.9987C26.1667 10.4241 25.9384 9.87296 25.5321 9.46663C25.1258 9.0603 24.5747 8.83203 24 8.83203C23.4254 8.83203 22.8743 9.0603 22.468 9.46663C22.0616 9.87296 21.8334 10.4241 21.8334 10.9987V23.9987C21.8335 24.5733 22.0619 25.1243 22.4682 25.5305L28.9682 32.0305C29.3745 32.4367 29.9255 32.6649 30.5 32.6649C31.0746 32.6649 31.6256 32.4367 32.0319 32.0305Z" fill="url(#paint5_linear_3845_23802)"/>
<defs>
<linearGradient id="paint0_linear_3845_23802" x1="44.0308" y1="30.1543" x2="44.0308" y2="34.4876" gradientUnits="userSpaceOnUse">
<stop stop-color="#009DFF"/>
<stop offset="1" stop-color="#AE00FF"/>
</linearGradient>
<linearGradient id="paint1_linear_3845_23802" x1="39.3053" y1="37.1328" x2="39.3053" y2="41.4661" gradientUnits="userSpaceOnUse">
<stop stop-color="#009DFF"/>
<stop offset="1" stop-color="#AE00FF"/>
</linearGradient>
<linearGradient id="paint2_linear_3845_23802" x1="45.6602" y1="21.8418" x2="45.6602" y2="26.1751" gradientUnits="userSpaceOnUse">
<stop stop-color="#009DFF"/>
<stop offset="1" stop-color="#AE00FF"/>
</linearGradient>
<linearGradient id="paint3_linear_3845_23802" x1="32.2875" y1="41.8672" x2="32.2875" y2="46.2005" gradientUnits="userSpaceOnUse">
<stop stop-color="#009DFF"/>
<stop offset="1" stop-color="#AE00FF"/>
</linearGradient>
<linearGradient id="paint4_linear_3845_23802" x1="21.8325" y1="0.166016" x2="21.8325" y2="47.8327" gradientUnits="userSpaceOnUse">
<stop stop-color="#009DFF"/>
<stop offset="1" stop-color="#AE00FF"/>
</linearGradient>
<linearGradient id="paint5_linear_3845_23802" x1="27.2498" y1="8.83203" x2="27.2498" y2="32.6649" gradientUnits="userSpaceOnUse">
<stop stop-color="#009DFF"/>
<stop offset="1" stop-color="#AE00FF"/>
</linearGradient>
</defs>
</svg>
